<?xml version="1.0" standalone="no"?><!DOCTYPE svg PUBLIC "-//W3C//DTD SVG 1.1//EN" "http://www.w3.org/Graphics/SVG/1.1/DTD/svg11.dtd"><svg t="1627030575827" class="icon" viewBox="0 0 1024 1024" version="1.1" xmlns="http://www.w3.org/2000/svg" p-id="9374" xmlns:xlink="http://www.w3.org/1999/xlink" width="200" height="200"><defs><style type="text/css">html, * {  }
@font-face { font-family: feedback-iconfont; src: url("//at.alicdn.com/t/font_1031158_1uhr8ri0pk5.eot?#iefix") format("embedded-opentype"), url("//at.alicdn.com/t/font_1031158_1uhr8ri0pk5.woff2") format("woff2"), url("//at.alicdn.com/t/font_1031158_1uhr8ri0pk5.woff") format("woff"), url("//at.alicdn.com/t/font_1031158_1uhr8ri0pk5.ttf") format("truetype"), url("//at.alicdn.com/t/font_1031158_1uhr8ri0pk5.svg#iconfont") format("svg"); }
</style></defs><path d="M675.251763 674.817488l96.054148-145.323446-96.054148-24.71019a264.224448 264.224448 0 0 0-64.192775-103.440346c-29.779807-29.71266-65.015329-51.501944-103.608215-64.075267l-1.259011 1.259011-117.037665-4.599587-52.005548 3.357362c-38.609671 12.556537-73.828407 34.329034-103.608215 64.058481l-155.513042 155.26124c-104.027884 103.84323-104.027884 272.651428 0 376.494658 106.965577 106.797709 276.008791 101.358781 377.53544 0l155.496256-154.84157a264.174087 264.174087 0 0 0 64.192775-103.440346z m-324.573043 153.599346c-46.969505 46.902357-122.056922 45.643346-167.784203 0-46.146951-46.079804-46.146951-121.452597 0-167.532401l154.254032-153.599345 84.303378 83.34653 84.739835 82.926859-155.513042 154.84157z" fill="#B197F9" p-id="9375"></path><path d="M611.529018 777.636722l-155.076585 155.26124c-101.224487 101.610583-269.814457 107.066298-376.47787 0l104.581849-104.967946c45.592986 45.760854 120.462175 47.019865 167.314172 0l155.076585-155.244453-84.50482-83.145088L611.545805 399.765546a265.114149 265.114149 0 0 1 63.991334 103.708935l95.802346 24.76055-95.802346 145.709543a265.097362 265.097362 0 0 1-63.991334 103.692148zM818.325776 861.184694l-42.856735-42.839949a30.283412 30.283412 0 1 1 42.856735-42.856735L861.165725 818.361532a30.283412 30.283412 0 1 1-42.856735 42.839949zM192.815524 235.674442l-42.856735-42.856735a30.283412 30.283412 0 1 1 42.856735-42.856736l42.856736 42.856736a30.283412 30.283412 0 1 1-42.856736 42.856735zM875.803826 605.336866a29.897315 29.897315 0 0 1 36.628828-21.117811l57.780213 15.477442a29.880528 29.880528 0 1 1-15.494229 57.713066l-57.763426-15.477443a29.880528 29.880528 0 0 1-21.151386-36.595254zM19.844196 374.887488a29.897315 29.897315 0 0 1 36.628828-21.134598l57.763425 15.477442a29.880528 29.880528 0 1 1-15.477442 57.729852l-57.780212-15.477442a29.880528 29.880528 0 0 1-21.134599-36.595254zM599.677528 970.198262l-15.477442-57.763426a29.880528 29.880528 0 1 1 57.729852-15.494229l15.477442 57.763426a29.880528 29.880528 0 1 1-57.729852 15.494229zM369.22815 114.221845l-15.477443-57.763426a29.897315 29.897315 0 1 1 57.713066-15.477442l15.477442 57.746639a29.880528 29.880528 0 1 1-57.713065 15.494229z" fill="#B197F9" p-id="9376"></path><path d="M933.432958 77.89518c-103.675361-103.641788-272.11425-104.078245-376.192495 0l-154.975864 154.556194a263.754417 263.754417 0 0 0-63.95776 103.238904 267.816826 267.816826 0 0 0 0 169.681113 263.771204 263.771204 0 0 0 63.95776 103.238904 263.401894 263.401894 0 0 0 103.238904 63.924187l1.275798-1.242225c45.979083-45.979083 45.979083-121.200795 0-167.196664-45.99587-45.962296-45.99587-121.200795 0-167.163091l154.94229-154.539407c22.578264-22.578264 51.837681-34.278674 83.598333-34.278673 0.839341-0.839341 7.95695-0.41967 9.618844 0.41967 22.578264 0 52.257351 12.120079 73.979488 33.859003 45.99587 45.962296 45.99587 121.200795 0 167.179878l-153.68328 153.280396a267.833613 267.833613 0 0 1 0 169.681113 269.495507 269.495507 0 0 0 103.238905-63.940974l154.94229-154.539407c103.675361-103.658575 103.675361-272.500347 0-376.158921z" fill="#8A3FEB" p-id="9377"></path><path d="M506.275697 670.285049l-1.259011 1.259011a263.653696 263.653696 0 0 1-103.339626-63.991334l104.598637-104.548276c46.029443 45.99587 46.029443 121.267942 0 167.280599zM933.349024 452.912598l-155.110159 154.640128a269.764096 269.764096 0 0 1-103.356412 63.991334 267.867186 267.867186 0 0 0 0-169.798621l153.851148-153.381117c46.029443-45.99587 46.029443-121.267942 0-167.280598L933.349024 76.552235c103.776082 103.708935 103.776082 272.668215 0 376.37715z" fill="#8A3FEB" p-id="9378"></path></svg>