<?xml version="1.0" standalone="no"?><!DOCTYPE svg PUBLIC "-//W3C//DTD SVG 1.1//EN" "http://www.w3.org/Graphics/SVG/1.1/DTD/svg11.dtd"><svg t="1627030612760" class="icon" viewBox="0 0 1029 1024" version="1.1" xmlns="http://www.w3.org/2000/svg" p-id="10216" xmlns:xlink="http://www.w3.org/1999/xlink" width="200.9765625" height="200"><defs><style type="text/css">html, * {  }
@font-face { font-family: feedback-iconfont; src: url("//at.alicdn.com/t/font_1031158_1uhr8ri0pk5.eot?#iefix") format("embedded-opentype"), url("//at.alicdn.com/t/font_1031158_1uhr8ri0pk5.woff2") format("woff2"), url("//at.alicdn.com/t/font_1031158_1uhr8ri0pk5.woff") format("woff"), url("//at.alicdn.com/t/font_1031158_1uhr8ri0pk5.ttf") format("truetype"), url("//at.alicdn.com/t/font_1031158_1uhr8ri0pk5.svg#iconfont") format("svg"); }
</style></defs><path d="M916.48 962.56c0 33.93024-27.50976 61.44-61.44 61.44H179.2c-33.93024 0-61.44-27.50976-61.44-61.44V61.44c0-33.93024 27.50976-61.44 61.44-61.44h481.28l256 256v706.56z" fill="#6D54B0" p-id="10217"></path><path d="M660.48 0l256 256h-215.04a40.96 40.96 0 0 1-40.96-40.96V0z" fill="#DDD0FE" p-id="10218"></path><path d="M329.89184 772.58752c21.62688 0 39.3216-5.57056 52.4288-16.384 13.1072-11.14112 21.95456-28.18048 25.88672-50.7904h-34.4064c-3.2768 25.55904-17.69472 38.66624-43.58144 38.66624-15.07328 0-26.2144-5.57056-33.75104-16.05632-8.192-10.81344-12.12416-25.88672-12.12416-44.89216 0-19.00544 3.93216-34.07872 12.45184-44.56448 8.192-10.81344 19.33312-16.05632 33.75104-16.05632 11.79648 0 21.2992 2.62144 28.50816 8.192 7.20896 5.24288 11.79648 13.76256 14.09024 25.23136h34.4064c-3.2768-20.97152-11.79648-36.70016-24.90368-47.18592-13.1072-9.8304-30.47424-14.7456-52.10112-14.7456-26.2144 0-46.53056 8.84736-61.27616 26.54208-13.76256 16.384-20.64384 37.35552-20.64384 62.91456 0 26.2144 6.88128 47.18592 20.97152 63.56992 14.41792 17.03936 34.4064 25.55904 60.29312 25.55904z m173.6704 0c50.13504 0 75.3664-18.0224 75.3664-53.73952 0-15.07328-6.88128-26.86976-20.31616-35.38944-9.17504-5.89824-23.59296-11.4688-42.92608-16.05632-17.03936-4.25984-28.18048-7.53664-34.07872-10.15808-9.17504-4.25984-13.76256-9.17504-13.76256-15.07328 0-6.5536 2.94912-11.79648 9.17504-15.07328 5.24288-3.2768 13.1072-4.58752 23.59296-4.58752 11.79648 0 20.97152 1.96608 26.86976 5.89824 5.57056 3.60448 9.50272 9.8304 12.12416 19.00544h33.75104c-3.93216-35.71712-28.18048-53.41184-72.0896-53.41184-20.31616 0-37.02784 4.25984-49.80736 13.1072-12.77952 8.51968-19.00544 20.64384-19.00544 36.0448 0 14.41792 6.5536 25.88672 19.6608 34.07872 7.86432 5.24288 21.95456 10.15808 41.94304 14.7456 17.36704 3.93216 28.83584 7.20896 34.07872 9.8304 9.8304 4.58752 15.07328 11.14112 15.07328 19.33312 0 15.07328-13.76256 22.9376-40.63232 22.9376-13.1072 0-22.28224-2.29376-28.18048-6.5536-5.89824-4.58752-10.15808-12.77952-12.12416-24.24832h-34.07872c3.93216 39.3216 28.83584 59.31008 75.3664 59.31008z m170.3936 0c50.13504 0 75.3664-18.0224 75.3664-53.73952 0-15.07328-6.88128-26.86976-20.31616-35.38944-9.17504-5.89824-23.59296-11.4688-42.92608-16.05632-17.03936-4.25984-28.18048-7.53664-34.07872-10.15808-9.17504-4.25984-13.76256-9.17504-13.76256-15.07328 0-6.5536 2.94912-11.79648 9.17504-15.07328 5.24288-3.2768 13.1072-4.58752 23.59296-4.58752 11.79648 0 20.97152 1.96608 26.86976 5.89824 5.57056 3.60448 9.50272 9.8304 12.12416 19.00544h33.75104c-3.93216-35.71712-28.18048-53.41184-72.0896-53.41184-20.31616 0-37.02784 4.25984-49.80736 13.1072-12.77952 8.51968-19.00544 20.64384-19.00544 36.0448 0 14.41792 6.5536 25.88672 19.6608 34.07872 7.86432 5.24288 21.95456 10.15808 41.94304 14.7456 17.36704 3.93216 28.83584 7.20896 34.07872 9.8304 9.8304 4.58752 15.07328 11.14112 15.07328 19.33312 0 15.07328-13.76256 22.9376-40.63232 22.9376-13.1072 0-22.28224-2.29376-28.18048-6.5536-5.89824-4.58752-10.15808-12.77952-12.12416-24.24832h-34.07872c3.93216 39.3216 28.83584 59.31008 75.3664 59.31008z" fill="#FFFFFF" p-id="10219"></path></svg>