<?xml version="1.0" standalone="no"?><!DOCTYPE svg PUBLIC "-//W3C//DTD SVG 1.1//EN" "http://www.w3.org/Graphics/SVG/1.1/DTD/svg11.dtd"><svg t="1627030718596" class="icon" viewBox="0 0 1024 1024" version="1.1" xmlns="http://www.w3.org/2000/svg" p-id="14874" xmlns:xlink="http://www.w3.org/1999/xlink" width="200" height="200"><defs><style type="text/css">html, * {  }
@font-face { font-family: feedback-iconfont; src: url("//at.alicdn.com/t/font_1031158_1uhr8ri0pk5.eot?#iefix") format("embedded-opentype"), url("//at.alicdn.com/t/font_1031158_1uhr8ri0pk5.woff2") format("woff2"), url("//at.alicdn.com/t/font_1031158_1uhr8ri0pk5.woff") format("woff"), url("//at.alicdn.com/t/font_1031158_1uhr8ri0pk5.ttf") format("truetype"), url("//at.alicdn.com/t/font_1031158_1uhr8ri0pk5.svg#iconfont") format("svg"); }
</style></defs><path d="M363.3152 102.4l45.9264 22.3232L348.7232 249.344l-45.9264-22.272zM336.9984 608.3584l45.9264 22.3232-57.344 118.0672-45.9264-22.3232zM691.3536 261.7344l45.9264 22.3232-57.344 118.0672-45.9264-22.272zM671.0272 770.7136l45.9264 22.3232-57.344 118.0672-45.9264-22.272zM242.3808 351.8976l45.9264 22.3232L189.44 577.536l-45.8752-22.3232zM833.792 436.5312l45.9264 22.272-98.816 203.3664-45.8752-22.272zM499.0976 273.8176l45.9264 22.3232-98.7648 203.3664-45.9264-22.3232zM573.6448 504.32l45.8752 22.272-98.7136 203.3664-45.9264-22.272z" fill="#96D6D7" p-id="14875"></path><path d="M102.4 640.3072l22.272-45.9264L249.344 654.848l-22.3232 45.9264zM604.9792 673.792l22.272-45.9264 137.728 66.9184-22.272 45.9264zM754.6368 348.8768l22.272-45.9264 144.384 70.0928-22.3232 45.9264zM364.9024 767.5904l22.3232-45.9264 203.3664 98.816-22.3232 45.8752zM433.2032 193.3312l22.3232-45.9264 203.3664 98.7648-22.3232 45.9264zM270.336 511.4368l22.2208-45.9264 203.4176 98.7648-22.3232 45.9264zM533.2992 436.5312l22.3232-45.9264 203.3664 98.816-22.3232 45.8752zM264.5504 305.408l22.3232-45.9264 137.728 66.8672-22.272 45.9264z" fill="#F0554A" p-id="14876"></path></svg>