<?xml version="1.0" standalone="no"?><!DOCTYPE svg PUBLIC "-//W3C//DTD SVG 1.1//EN" "http://www.w3.org/Graphics/SVG/1.1/DTD/svg11.dtd"><svg t="1627030791339" class="icon" viewBox="0 0 1024 1024" version="1.1" xmlns="http://www.w3.org/2000/svg" p-id="17393" xmlns:xlink="http://www.w3.org/1999/xlink" width="200" height="200"><defs><style type="text/css">html, * {  }
@font-face { font-family: feedback-iconfont; src: url("//at.alicdn.com/t/font_1031158_1uhr8ri0pk5.eot?#iefix") format("embedded-opentype"), url("//at.alicdn.com/t/font_1031158_1uhr8ri0pk5.woff2") format("woff2"), url("//at.alicdn.com/t/font_1031158_1uhr8ri0pk5.woff") format("woff"), url("//at.alicdn.com/t/font_1031158_1uhr8ri0pk5.ttf") format("truetype"), url("//at.alicdn.com/t/font_1031158_1uhr8ri0pk5.svg#iconfont") format("svg"); }
</style></defs><path d="M853.333333 298.666667v597.333333a42.666667 42.666667 0 0 1-42.666666 42.666667H213.333333a42.666667 42.666667 0 0 1-42.666666-42.666667V128a42.666667 42.666667 0 0 1 42.666666-42.666667h426.666667z" fill="#FF7625" p-id="17394"></path><path d="M853.333333 298.666667h-170.666666a42.666667 42.666667 0 0 1-42.666667-42.666667V85.333333" fill="#FAA06B" p-id="17395"></path><path d="M441.173333 540.565333l-95.850666 37.824 95.872 37.824v30.016l-132.416-52.821333v-30.016l132.416-52.821333z m95.146667-86.72h29.952l-73.130667 195.648h-30.016z m52.181333 163.050667l95.872-37.824-95.872-37.824v-30.016l132.416 52.181333v30.634667l-132.416 52.821333z" fill="#FFFFFF" p-id="17396"></path></svg>