<?xml version="1.0" standalone="no"?><!DOCTYPE svg PUBLIC "-//W3C//DTD SVG 1.1//EN" "http://www.w3.org/Graphics/SVG/1.1/DTD/svg11.dtd"><svg t="1627029463368" class="icon" viewBox="0 0 1024 1024" version="1.1" xmlns="http://www.w3.org/2000/svg" p-id="5336" xmlns:xlink="http://www.w3.org/1999/xlink" width="200" height="200"><defs><style type="text/css">html, * {  }
@font-face { font-family: feedback-iconfont; src: url("//at.alicdn.com/t/font_1031158_1uhr8ri0pk5.eot?#iefix") format("embedded-opentype"), url("//at.alicdn.com/t/font_1031158_1uhr8ri0pk5.woff2") format("woff2"), url("//at.alicdn.com/t/font_1031158_1uhr8ri0pk5.woff") format("woff"), url("//at.alicdn.com/t/font_1031158_1uhr8ri0pk5.ttf") format("truetype"), url("//at.alicdn.com/t/font_1031158_1uhr8ri0pk5.svg#iconfont") format("svg"); }
</style></defs><path d="M482.697846 29.538462l-374.153846 213.779692A59.076923 59.076923 0 0 0 78.769231 294.596923v426.535385a59.076923 59.076923 0 0 0 29.774769 51.318154l374.153846 213.819076a59.076923 59.076923 0 0 0 58.604308 0l374.153846-213.819076A59.076923 59.076923 0 0 0 945.230769 721.171692V294.596923a59.076923 59.076923 0 0 0-29.774769-51.318154l-374.153846-213.819077a59.076923 59.076923 0 0 0-58.604308 0z m235.598769 648.507076c0 24.733538-22.252308 45.292308-52.696615 45.292308-21.740308 0-46.552615-8.979692-62.070154-28.435692l-206.848-250.564923v233.668923c0 25.284923-19.613538 45.292308-43.913846 45.292308h-2.599385c-24.851692 0-44.504615-21.070769-44.504615-45.292308V355.958154c0-24.733538 21.740308-45.252923 51.751385-45.252923 22.252308 0 47.537231 8.940308 63.054769 28.435692l205.784615 250.525539V355.958154c0-25.284923 20.676923-45.252923 44.504616-45.252923h2.56c24.812308 0 44.465231 21.070769 44.46523 45.292307v322.048h0.512z" fill="#0F9749" p-id="5337"></path></svg>