<?xml version="1.0" standalone="no"?><!DOCTYPE svg PUBLIC "-//W3C//DTD SVG 1.1//EN" "http://www.w3.org/Graphics/SVG/1.1/DTD/svg11.dtd"><svg t="1627027629196" class="icon" viewBox="0 0 1170 1024" version="1.1" xmlns="http://www.w3.org/2000/svg" p-id="2707" xmlns:xlink="http://www.w3.org/1999/xlink" width="228.515625" height="200"><defs><style type="text/css">html, * {  }
@font-face { font-family: feedback-iconfont; src: url("//at.alicdn.com/t/font_1031158_1uhr8ri0pk5.eot?#iefix") format("embedded-opentype"), url("//at.alicdn.com/t/font_1031158_1uhr8ri0pk5.woff2") format("woff2"), url("//at.alicdn.com/t/font_1031158_1uhr8ri0pk5.woff") format("woff"), url("//at.alicdn.com/t/font_1031158_1uhr8ri0pk5.ttf") format("truetype"), url("//at.alicdn.com/t/font_1031158_1uhr8ri0pk5.svg#iconfont") format("svg"); }
</style></defs><path d="M1.024 211.894857v669.257143c0 39.497143 32.402286 71.460571 72.484571 71.460571h1001.106286a71.899429 71.899429 0 0 0 72.557714-71.533714V211.894857H1.024z" fill="#F2F2F2" p-id="2708"></path><path d="M1074.322286 0H73.508571a72.411429 72.411429 0 0 0-72.484571 72.557714v161.645715h1146.221714V72.557714a72.996571 72.996571 0 0 0-72.923428-72.484571z" fill="#0CAAB9" p-id="2709"></path><path d="M968.704 116.809143a41.325714 41.325714 0 0 0 61.805714 35.693714 41.252571 41.252571 0 1 0-61.805714-35.693714z m-150.308571 0a41.325714 41.325714 0 0 0 61.878857 35.693714 41.252571 41.252571 0 1 0-61.878857-35.693714z m-149.869715 0a41.325714 41.325714 0 0 0 61.878857 35.693714 41.252571 41.252571 0 1 0-61.878857-35.693714z" fill="#FFFFFF" p-id="2710"></path><path d="M419.035429 729.965714l-44.105143-44.105143 108.982857-110.738285-108.982857-110.738286 44.105143-44.032 154.770285 154.770286L419.108571 729.965714z m374.491428 0H581.339429v-62.902857h211.382857l0.804571 62.902857z" fill="#324A5E" p-id="2711"></path></svg>