<?xml version="1.0" standalone="no"?><!DOCTYPE svg PUBLIC "-//W3C//DTD SVG 1.1//EN" "http://www.w3.org/Graphics/SVG/1.1/DTD/svg11.dtd"><svg t="1627034248359" class="icon" viewBox="0 0 1024 1024" version="1.1" xmlns="http://www.w3.org/2000/svg" p-id="24237" xmlns:xlink="http://www.w3.org/1999/xlink" width="200" height="200"><defs><style type="text/css">html, * {  }
@font-face { font-family: feedback-iconfont; src: url("//at.alicdn.com/t/font_1031158_1uhr8ri0pk5.eot?#iefix") format("embedded-opentype"), url("//at.alicdn.com/t/font_1031158_1uhr8ri0pk5.woff2") format("woff2"), url("//at.alicdn.com/t/font_1031158_1uhr8ri0pk5.woff") format("woff"), url("//at.alicdn.com/t/font_1031158_1uhr8ri0pk5.ttf") format("truetype"), url("//at.alicdn.com/t/font_1031158_1uhr8ri0pk5.svg#iconfont") format("svg"); }
</style></defs><path d="M244.096 612.1472c9.8304 12.0832 20.1984 23.7056 31.0784 34.8416a140.1088 140.1088 0 0 0-68.5056 44.8768c-21.4528 25.9072-32.8192 60.1344-30.208 89.4976H119.296c11.4688-24.8576 57.1904-96.6912 124.7744-169.216m661.8112 184.8064h-69.4784c-159.36-83.1744-299.264-141.824-447.8976-154.624 0.3328-20.6848 3.9936-44.0832 11.0848-70.1952l-13.696-3.6864c-7.2704 26.8288-11.0848 51.0976-11.52 72.8064a698.112 698.112 0 0 0-46.7968-1.536c-13.312 0-25.472 1.2288-36.5568 3.3792a498.304 498.304 0 0 1-37.1968-41.2672c68.5568-71.3984 181.4528-135.9872 279.7312-160.256 27.648 91.9552 87.04 154.9568 159.1296 197.376 5.2992-3.0208 10.496-6.1952 15.5904-9.5232l125.7472 135.3728 5.504-0.4608c34.3296-2.9696 53.8624 15.6672 59.008 21.4528 3.8144 4.224 6.0672 8.0896 7.3472 11.1616" fill="#D1A41A" p-id="24238"></path><path d="M844.544 344.1408c2.56 124.928-61.184 224.3584-150.4 275.3536-151.4752-75.4688-179.968-266.6496-154.1888-369.1776 7.168 39.2192 20.2496 63.7952 48.4608 75.8528 61.4912-17.6128 146.1248-18.9952 208.4864-1.792 25.9584-18.8928 36.0448-47.744 41.5488-72.96 6.8608 29.312 6.0672 92.7232 6.0928 92.7232" fill="#FFDC76" p-id="24239"></path><path d="M640.512 360.832c5.2224 0 8.8832 2.1248 11.52 6.656 6.2464 10.7264 5.2224 31.8208 0.0512 53.9136h-41.8816v9.1904h39.5264a193.5872 193.5872 0 0 1-16.896 41.7792l-2.176 3.84 52.4288 32.9728-29.5168 19.456 5.0432 7.68 32.9984-21.76 35.584 23.2192 4.8896-7.7568-33.024-20.4288s49.3824-32.0512 51.84-33.6128l-0.0512-0.0768h0.0512c-10.8544-16.0256-14.336-29.7216-9.7792-45.312h3.6864l39.808-0.0512 0.1024-9.1392h-40.1152c7.3984-17.3824 17.7408-33.024 54.656-33.024v-9.1904c-34.048 0-54.4512 13.5168-64.2304 42.24h-73.4976c5.12-22.9632 6.0416-45.5168-1.536-58.5472a21.504 21.504 0 0 0-19.5072-11.2384c-30.3616 0-42.3424 31.0272-42.8544 32.3584l8.6016 3.2256c0.4352-1.1264 10.3168-26.3936 34.2528-26.3936z m50.9696 142.7968l-38.7584-24.3968h75.776l-37.0176 24.3968z m40.2944-73.0368c-3.2512 10.3936-1.9456 26.0352 6.0672 39.4752h-93.3888a219.136 219.136 0 0 0 14.7968-39.4752h72.5248zM606.2336 387.2256" fill="#000000" p-id="24240"></path><path d="M909.1328 776.1152c-15.5648-17.408-46.0288-25.6512-71.4752-25.0368-16.2048-19.3024-102.272-110.1568-119.6544-128.4864a328.4224 328.4224 0 0 0 91.0336-96.8704h47.488v-10.1888h-41.472c2.6624-4.7104 5.1968-9.472 7.6032-14.2848h33.8688v-10.1888h-28.928c21.504-46.4384 33.408-99.7376 32.256-158.0544l0.1024 0.0512c-0.0512-15.9488-5.0176-83.4048-14.1568-101.9648-24.7808 9.3952-69.8368 39.9104-80.0512 71.0912a496.5888 496.5888 0 0 0-152.2688 1.92c-8.064-33.536-48.5632-59.2384-79.104-73.7024-12.8768 21.76-18.5856 72.1408-17.152 107.904l-0.1536 0.1024c1.2288 32.3072 5.6064 61.952 12.672 89.216-105.6256 26.1888-220.6208 95.3856-284.928 162.2528-30.1312-40.6528-42.0608-73.984-45.6192-99.2512-4.48-31.9232 3.1488-61.184 22.016-84.6848 29.5936-36.736 71.6288-39.3216 114.8416-32.0512-0.8448 6.8096 0.0512 13.3376 2.7904 17.3824 11.4176 16.896 72.832 22.784 109.4912 6.4512-27.0592-37.9136-81.8432-56.4224-97.024-48.9984a25.984 25.984 0 0 0-11.4432 12.2112c-14.9248-2.6624-29.7728-4.6592-40.6016-4.5824-38.1184 0.2816-67.2512 13.6192-89.088 40.704-21.376 26.624-30.0288 59.648-25.0112 95.5392 4.7872 33.9712 21.6064 70.144 49.8176 107.6224-4.5824 4.9152-9.088 9.8816-13.568 14.8736C152.6528 692.0192 102.4 774.528 102.4 788.224v7.0656h90.7008l-1.5872-8.3968c-5.12-27.0592 5.12-60.9024 26.0608-86.1952 13.1584-15.872 34.944-33.9968 69.12-42.3424 30.4384 29.696 69.1968 61.184 112.3072 91.6224h67.4048v-7.0912c0-7.9872-3.9424-14.976-11.1616-19.712-10.624-6.9376-27.0592-7.9104-42.1632-2.7648-14.4128-16.0256-22.4768-37.4272-24.2176-64.0256 146.2784 12.9536 286.208 72.0128 444.0832 154.496h86.8608l1.1264-5.7088c1.6384-8.0896-2.7904-18.944-11.8016-29.0304zM539.9808 250.0608c7.168 39.2192 20.224 63.7952 48.4352 75.8528 24.9856-7.1424 53.8368-11.5712 83.4304-13.2096l24.5504 53.8368 15.7184-54.2976c29.9264 0.9728 59.2128 4.864 84.7616 11.8784 25.984-18.8928 36.0704-47.744 41.5744-72.96 6.8608 29.3376 6.0672 92.7232 6.0928 92.7232 0.4864 23.68-1.4336 46.4128-5.4272 68.096l-28.032 11.904 24.704 3.7632c-1.92 8.2176-4.1984 16.384-6.784 24.3968l-23.9104 6.9376 19.0464 6.8608c-3.2256 8.5504-6.8096 16.9728-10.7776 25.216h-39.424v10.1888h34.2272c-2.56 4.8384-5.2736 9.6-8.1152 14.2848h-26.112v10.1888h19.712a294.5792 294.5792 0 0 1-99.5328 93.5168c-45.3888-22.6048-79.7184-55.6288-104.8832-93.5168h15.0528v-10.1888h-21.504c-2.8672-4.6848-5.5808-9.472-8.192-14.2848h29.696v-10.1888H569.344c-5.9904-12.1344-11.2384-24.6016-15.744-37.376l17.8176-4.9664-22.4512-8.96a383.1296 383.1296 0 0 1-6.144-22.0672l34.5856-2.3552-39.5264-20.992c-9.7024-53.4016-7.7568-105.2416 2.0736-144.2816z m-333.312 441.6c-21.4528 25.856-32.8192 60.0832-30.208 89.4464H119.296c11.4944-24.832 57.216-96.6656 124.8-169.216 9.2928 11.52 19.6608 23.1424 31.0528 34.8416a140.0064 140.0064 0 0 0-68.48 44.9024z m629.76 105.0368c-159.36-83.1488-299.264-141.7984-447.8976-154.5984 0.3072-20.6848 3.9936-44.0832 11.0592-70.1952l-13.6704-3.6864c-7.2448 26.8032-11.0848 51.0976-11.52 72.8064-15.5648-1.024-31.1808-1.536-46.7968-1.536-13.312 0-25.472 1.2032-36.5568 3.3792A503.8336 503.8336 0 0 1 253.8496 601.6a509.184 509.184 0 0 1 64.4352-55.936l33.152 22.8864-10.8288-38.656c10.1632-6.8608 20.48-13.4144 31.0272-19.712l49.152 24.9856-23.0912-39.7824c6.7072-3.6352 13.4912-7.168 20.3264-10.5472l68.6592 46.0544-22.528-66.816a523.008 523.008 0 0 1 69.376-22.784c5.1456 17.0752 11.6224 33.7152 19.3536 49.7664h-31.2064v10.1888h36.352c2.56 4.864 5.1712 9.6256 7.936 14.2848h-44.288v10.1888h50.6112c31.0272 48.1792 72.96 85.0432 120.4224 112.9728 5.2736-3.0464 10.4704-6.2208 15.5648-9.5488l12.4416 13.3888-20.9152 32.1536 35.6608-16.2816 20.6336 22.2208-34.8928 26.5984 48.0512-12.4416 64.7936 69.76 5.4784-0.4608c34.3552-2.944 53.888 15.6928 59.0592 21.4528 3.7888 4.2496 6.0672 8.1152 7.3216 11.1616h-69.504z" fill="#000000" p-id="24241"></path></svg>