<?xml version="1.0" standalone="no"?><!DOCTYPE svg PUBLIC "-//W3C//DTD SVG 1.1//EN" "http://www.w3.org/Graphics/SVG/1.1/DTD/svg11.dtd"><svg t="1627037353517" class="icon" viewBox="0 0 3537 1024" version="1.1" xmlns="http://www.w3.org/2000/svg" p-id="27574" xmlns:xlink="http://www.w3.org/1999/xlink" width="690.8203125" height="200"><defs><style type="text/css">html, * {  }
@font-face { font-family: feedback-iconfont; src: url("//at.alicdn.com/t/font_1031158_1uhr8ri0pk5.eot?#iefix") format("embedded-opentype"), url("//at.alicdn.com/t/font_1031158_1uhr8ri0pk5.woff2") format("woff2"), url("//at.alicdn.com/t/font_1031158_1uhr8ri0pk5.woff") format("woff"), url("//at.alicdn.com/t/font_1031158_1uhr8ri0pk5.ttf") format("truetype"), url("//at.alicdn.com/t/font_1031158_1uhr8ri0pk5.svg#iconfont") format("svg"); }
</style></defs><path d="M850.944 3.537455h310.272L573.160727 967.400727H257.861818L0 2.792727h313.809455L481.28 621.847273zM1541.585455 226.304l-47.755637 270.336h316.602182c39.191273 0 68.421818-10.146909 87.691636-30.440727 19.269818-20.293818 32.581818-56.878545 40.029091-109.661091 5.864727-44.311273 3.258182-77.172364-7.912727-98.397091-11.170909-21.224727-35.281455-31.837091-72.145455-31.837091h-316.50909zM1317.236364 0h685.707636c63.022545 0 109.381818 9.960727 139.077818 29.789091 29.602909 19.921455 49.617455 41.611636 59.857455 65.442909 10.333091 23.738182 16.011636 50.176 17.221818 79.406545a616.261818 616.261818 0 0 1-8.564364 111.895273c-6.888727 45.521455-15.080727 92.625455-24.482909 141.125818-14.615273 72.238545-31.837091 126.976-51.758545 164.026182-19.828364 37.143273-42.635636 65.163636-68.421818 84.340364a214.109091 214.109091 0 0 1-80.337455 38.167273c-27.648 6.237091-63.674182 9.122909-107.892364 8.657454H1454.08l-33.140364 187.764364-276.014545 67.211636L1317.329455 0zM2434.699636 3.537455l364.450909 2.792727 320.698182 647.912727L3233.978182 6.330182h264.750545l-169.518545 961.629091h-392.657455l-301.800727-602.298182-94.208 534.341818-278.807273 84.154182z" fill="#29B9A5" p-id="27575"></path></svg>