<?xml version="1.0" standalone="no"?><!DOCTYPE svg PUBLIC "-//W3C//DTD SVG 1.1//EN" "http://www.w3.org/Graphics/SVG/1.1/DTD/svg11.dtd"><svg t="1627030946324" class="icon" viewBox="0 0 1024 1024" version="1.1" xmlns="http://www.w3.org/2000/svg" p-id="23308" xmlns:xlink="http://www.w3.org/1999/xlink" width="200" height="200"><defs><style type="text/css">html, * {  }
@font-face { font-family: feedback-iconfont; src: url("//at.alicdn.com/t/font_1031158_1uhr8ri0pk5.eot?#iefix") format("embedded-opentype"), url("//at.alicdn.com/t/font_1031158_1uhr8ri0pk5.woff2") format("woff2"), url("//at.alicdn.com/t/font_1031158_1uhr8ri0pk5.woff") format("woff"), url("//at.alicdn.com/t/font_1031158_1uhr8ri0pk5.ttf") format("truetype"), url("//at.alicdn.com/t/font_1031158_1uhr8ri0pk5.svg#iconfont") format("svg"); }
</style></defs><path d="M512 3.285333C232.874667 3.285333 6.613333 229.589333 6.613333 508.714667S232.874667 1014.101333 512 1014.101333c279.125333 0 505.386667-226.261333 505.386667-505.386666C1017.386667 229.546667 791.125333 3.285333 512 3.285333z m298.922667 462.506667a184.874667 184.874667 0 0 1-104.021334 77.568c-1.664 0-1.664 0-3.328 1.706667-6.613333 1.621333-13.226667 3.285333-21.461333 3.285333-31.36 0-47.872-21.504-39.637333-46.250667 6.613333-18.176 24.746667-34.688 46.250666-41.301333 34.688-13.226667 57.813333-41.301333 57.813334-74.325333 0-44.586667-42.965333-80.938667-95.786667-80.938667-52.906667 0-95.829333 36.352-95.829333 80.938667v246.101333c0 59.434667-34.645333 110.634667-85.845334 140.373333-28.117333 16.512-61.141333 24.746667-95.829333 24.746667-100.693333 0-181.674667-74.282667-181.674667-165.12 0-29.738667 8.277333-56.149333 23.125334-80.938667a184.874667 184.874667 0 0 1 104.064-77.653333c8.277333-1.621333 14.848-3.285333 23.125333-3.285333 31.36 0 47.872 21.461333 39.637333 46.250666-6.613333 18.176-23.125333 33.024-42.965333 41.301334a12.501333 12.501333 0 0 0-6.570667 3.285333c-31.402667 13.226667-52.906667 39.68-52.906666 72.704 0 44.586667 42.965333 80.896 95.829333 80.896s95.786667-36.309333 95.786667-80.896V388.138667c0-59.477333 34.688-110.677333 85.888-140.373334 28.074667-16.554667 61.098667-24.789333 95.786666-24.789333 100.778667 0 181.674667 74.325333 181.674667 165.12a146.773333 146.773333 0 0 1-23.125333 77.653333z" fill="#54BA6A" p-id="23309"></path></svg>